<?xml version="1.0" encoding="utf-8"?>
<!-- Generator: Adobe Illustrator 15.0.0, SVG Export Plug-In . SVG Version: 6.00 Build 0)  -->
<!DOCTYPE svg PUBLIC "-//W3C//DTD SVG 1.1//EN" "http://www.w3.org/Graphics/SVG/1.1/DTD/svg11.dtd">
<svg version="1.1" id="Layer_1" xmlns="http://www.w3.org/2000/svg" xmlns:xlink="http://www.w3.org/1999/xlink" x="0px" y="0px"
	 width="291.648px" height="291.664px" viewBox="-94.527 -111.387 291.648 291.664"
	 enable-background="new -94.527 -111.387 291.648 291.664" xml:space="preserve">
<path d="M-94.527,34.43v134.742c0,2.949,1.176,5.77,3.258,7.855s4.906,3.25,7.852,3.25l134.688-0.004
	c11.965,0,53.902-2.133,91.406-29.539c24.84-18.156,54.445-53.062,54.445-116.305v-134.707c0-0.035-0.008-0.066-0.008-0.102
	c-0.008-0.449-0.074-0.895-0.133-1.34c-0.031-0.266-0.035-0.535-0.09-0.801c-0.094-0.469-0.262-0.922-0.422-1.383
	c-0.074-0.215-0.125-0.449-0.215-0.664c-0.172-0.418-0.414-0.809-0.641-1.203c-0.137-0.234-0.242-0.484-0.391-0.711
	c-0.203-0.297-0.453-0.559-0.684-0.836c-0.227-0.273-0.422-0.562-0.672-0.816c-0.023-0.027-0.051-0.043-0.078-0.066
	c-0.027-0.027-0.043-0.055-0.07-0.082c-0.227-0.219-0.488-0.379-0.73-0.574c-0.305-0.246-0.598-0.512-0.922-0.727
	c-0.336-0.219-0.688-0.379-1.043-0.555c-0.289-0.148-0.574-0.32-0.879-0.445c-0.383-0.156-0.781-0.25-1.18-0.359
	c-0.297-0.082-0.586-0.188-0.891-0.246c-0.418-0.078-0.84-0.094-1.262-0.121c-0.27-0.02-0.527-0.078-0.797-0.078L51.27-111.379
	C0.852-111.379-94.52-80.906-94.527,34.43z M51.27-89.16l108.629-0.008L-72.301,152.047V34.43
	C-72.301-8.32-46.473-89.16,51.27-89.16z M51.281,158.047l-98.527,0.004L174.902-72.715V34.43
	C174.902,132.215,94.031,158.047,51.281,158.047z"/>
</svg>
